<?xml version="1.0" encoding="UTF-8"?><svg id="Layer_1" xmlns="http://www.w3.org/2000/svg" viewBox="0 0 1569.16 283.46"><defs><style>.cls-1{fill:none;stroke:#ff5a46;stroke-miterlimit:10;stroke-width:14.06px;}.cls-2{fill:#ff5a46;}.cls-3{fill:gray;}</style></defs><path class="cls-2" d="m56.77,86.94v-10.67h67.45v10.9l-20.44,2.27,34.52,101.52,34.52-101.29-19.08-2.5v-10.9h50.87v10.67l-18.4,2.73-47.46,138.08h-15.67l-50.87-139.22-15.44-1.59Z"/><path class="cls-2" d="m280.92,229.56c-6.06,0-10.98-1.52-14.76-4.54-3.79-3.03-6.36-7.19-7.72-12.49-5.6,5.76-10.67,10.11-15.22,13.06s-10.45,4.43-17.71,4.43c-8.48,0-15.63-2.46-21.46-7.38-5.83-4.92-8.74-12-8.74-21.23,0-4.84,1.14-9.35,3.41-13.51,2.27-4.16,6.32-8.06,12.15-11.7,5.83-3.63,14.19-7.19,25.09-10.67,3.03-1.06,6.43-2.12,10.22-3.18,3.78-1.06,7.64-2.12,11.58-3.18v-6.36c0-10.6-1.48-17.75-4.43-21.46-2.95-3.71-8.14-5.56-15.56-5.56-1.36,0-2.84.08-4.43.23-1.59.15-3.22.38-4.88.68l-2.73,12.49c-.61,5.45-2.2,9.46-4.77,12.04-2.58,2.58-5.76,3.86-9.54,3.86-7.27,0-11.51-3.41-12.72-10.22,1.36-9.08,6.25-16.35,14.65-21.8s19.49-8.18,33.27-8.18,22.79,3.14,28.84,9.42c6.05,6.28,9.08,16.84,9.08,31.68v49.51c0,6.81,2.19,10.22,6.59,10.22,2.87,0,5.52-1.66,7.95-5l5.22,4.54c-2.73,5.15-5.94,8.82-9.65,11.01-3.71,2.19-8.29,3.29-13.74,3.29Zm-59.05-32.93c0,5.9,1.55,10.18,4.66,12.83,3.1,2.65,6.93,3.97,11.47,3.97,2.57,0,5.15-.6,7.72-1.82,2.57-1.21,6.59-3.71,12.04-7.49v-35.88c-3.18,1.06-6.17,2.04-8.97,2.95-2.8.91-5.19,1.74-7.15,2.5-7.57,3.03-12.76,6.51-15.56,10.45-2.8,3.94-4.2,8.1-4.2,12.49Z"/><path class="cls-2" d="m310.67,226.83v-9.31l15.44-2.95c.15-5.9.26-11.81.34-17.71.07-5.9.11-11.81.11-17.71v-97.43l-16.58-2.27v-8.86l41.33-10.22,3.41,2.04-.91,32.02v84.71c0,5.9.04,11.81.11,17.71.07,5.9.19,11.81.34,17.71l15.44,2.95v9.31h-59.05Z"/><path class="cls-2" d="m438.3,230.01c-10.3,0-19.57-2.27-27.82-6.81-8.25-4.54-14.8-11.13-19.64-19.76-4.85-8.63-7.27-18.92-7.27-30.89s2.53-22.48,7.61-31.11c5.07-8.63,11.77-15.22,20.1-19.76,8.33-4.54,17.33-6.81,27.03-6.81s18.7,2.27,27.03,6.81c8.32,4.54,15.06,11.09,20.21,19.64,5.15,8.56,7.72,18.96,7.72,31.23s-2.46,22.45-7.38,31c-4.92,8.56-11.51,15.1-19.76,19.64-8.25,4.54-17.53,6.81-27.82,6.81Zm0-11.13c8.18,0,14.42-3.78,18.74-11.36,4.31-7.57,6.47-19.15,6.47-34.75,0-31.19-8.4-46.78-25.21-46.78s-24.98,15.6-24.98,46.78c0,15.6,2.12,27.18,6.36,34.75,4.24,7.57,10.45,11.36,18.62,11.36Z"/><path class="cls-2" d="m509.61,226.83v-9.31l14.53-2.73c.15-5.75.23-11.92.23-18.51v-29.18c0-6.21-.04-11.16-.11-14.88-.08-3.71-.27-7.83-.57-12.38l-15.9-2.04v-8.63l37.93-14.31,3.63,2.27,2.27,26.8c3.48-9.39,8.18-16.58,14.08-21.57,5.9-5,11.81-7.49,17.71-7.49,4.09,0,7.83,1.06,11.24,3.18,3.41,2.12,5.64,5.15,6.7,9.08-.15,5.6-1.52,9.96-4.09,13.06-2.58,3.1-6.13,4.66-10.67,4.66-5.45,0-10.6-2.73-15.44-8.18l-2.04-2.27c-8.03,6.66-13.78,16.05-17.26,28.16v33.27c0,6.44.07,12.46.23,18.05l18.62,3.63v9.31h-61.09Z"/><path class="cls-2" d="m661.09,230.01c-10.6,0-19.91-2.27-27.93-6.81-8.03-4.54-14.31-11.09-18.85-19.64-4.54-8.55-6.81-18.74-6.81-30.55s2.61-22.52,7.83-31.23c5.22-8.7,12.04-15.36,20.44-19.99,8.4-4.62,17.37-6.93,26.91-6.93,8.93,0,16.73,1.9,23.39,5.68,6.66,3.79,11.84,9.08,15.56,15.9,3.71,6.81,5.56,14.84,5.56,24.07,0,4.85-.45,9.01-1.36,12.49h-69.49c.6,13.02,4.05,22.79,10.33,29.3,6.28,6.51,14.19,9.77,23.73,9.77,6.66,0,12.3-1.32,16.92-3.97,4.62-2.65,8.82-6.09,12.6-10.33l6.59,5.9c-4.39,8.33-10.41,14.8-18.05,19.42-7.65,4.62-16.77,6.93-27.37,6.93Zm0-104.24c-3.63,0-7.23,1.17-10.79,3.52-3.56,2.35-6.59,6.17-9.08,11.47-2.5,5.3-4.05,12.49-4.66,21.57h31.11c5.45,0,9.08-1.14,10.9-3.41,1.82-2.27,2.73-5.45,2.73-9.54,0-6.96-1.97-12.64-5.9-17.03-3.94-4.39-8.71-6.59-14.31-6.59Z"/><path class="cls-2" d="m723.77,226.83v-9.31l14.76-2.95c.15-5.6.23-11.7.23-18.28v-29.18c0-6.21-.04-11.16-.11-14.88-.08-3.71-.27-7.83-.57-12.38l-15.9-2.04v-8.63l37.93-14.31,3.63,2.27,1.59,17.71c5.45-6.21,11.39-11.09,17.83-14.65,6.43-3.56,13.13-5.34,20.1-5.34,14.68,0,24.15,6.89,28.39,20.67,6.05-7.27,12.34-12.53,18.85-15.78,6.51-3.25,13.25-4.88,20.21-4.88,10.29,0,18.02,3.18,23.17,9.54,5.15,6.36,7.72,16.5,7.72,30.43v41.67c0,6.44.07,12.53.23,18.28l13.85,2.73v9.31h-55.41v-9.31l14.08-2.95c.15-5.6.23-11.62.23-18.05v-38.27c0-9.54-1.25-15.97-3.75-19.3-2.5-3.33-6.62-5-12.38-5-8.03,0-16.35,3.86-24.98,11.58.15,1.52.26,3.1.34,4.77.07,1.67.11,3.41.11,5.22v40.99c0,6.44.07,12.53.23,18.28l13.63,2.73v9.31h-55.64v-9.31l14.53-2.95c.15-5.6.23-11.62.23-18.05v-37.81c0-9.23-1.17-15.67-3.52-19.3-2.35-3.63-6.47-5.45-12.38-5.45-4.24,0-8.44,1.02-12.6,3.07-4.17,2.04-8.21,4.81-12.15,8.29v51.1c0,6.51.07,12.64.23,18.4l13.4,2.73v9.31h-56.09Z"/><path class="cls-3" d="m991.84,135.3c4-6.58,9.13-11.67,15.37-15.27,6.24-3.6,13.07-5.4,20.47-5.4,11.81,0,20.6,3.33,26.37,9.98,5.77,6.65,8.69,16.63,8.76,29.93v72.29h-12.12v-72.39c-.07-9.84-2.16-17.17-6.26-21.99-4.11-4.82-10.67-7.23-19.7-7.23-7.53,0-14.2,2.36-20.01,7.08-5.8,4.72-10.1,11.08-12.88,19.09v75.45h-12.12V70.44h12.12v64.86Z"/><path class="cls-3" d="m1136.83,228.87c-9.37,0-17.84-2.31-25.4-6.92-7.57-4.62-13.46-11.05-17.67-19.29-4.21-8.25-6.31-17.5-6.31-27.75v-4.38c0-10.59,2.05-20.12,6.16-28.61,4.11-8.48,9.83-15.15,17.16-20.01,7.33-4.85,15.27-7.28,23.83-7.28,13.37,0,23.98,4.57,31.82,13.69,7.84,9.13,11.76,21.6,11.76,37.42v6.82h-78.6v2.34c0,12.49,3.58,22.89,10.74,31.21,7.16,8.32,16.17,12.47,27.03,12.47,6.52,0,12.27-1.19,17.26-3.56,4.99-2.38,9.52-6.18,13.59-11.4l7.64,5.8c-8.96,12.97-21.96,19.45-39,19.45Zm-2.24-103.85c-9.16,0-16.89,3.36-23.16,10.08-6.28,6.72-10.1,15.75-11.45,27.08h66.08v-1.32c-.34-10.59-3.36-19.21-9.06-25.86-5.7-6.65-13.17-9.98-22.4-9.98Z"/><path class="cls-3" d="m1271.44,226.83c-1.22-3.46-2-8.59-2.34-15.37-4.28,5.57-9.72,9.86-16.34,12.88s-13.63,4.53-21.03,4.53c-10.59,0-19.16-2.95-25.71-8.86-6.55-5.91-9.83-13.37-9.83-22.4,0-10.72,4.46-19.21,13.39-25.45,8.93-6.24,21.36-9.37,37.32-9.37h22.09v-12.52c0-7.87-2.43-14.07-7.28-18.58-4.85-4.51-11.93-6.77-21.23-6.77-8.49,0-15.51,2.17-21.08,6.52-5.57,4.34-8.35,9.57-8.35,15.68l-12.22-.1c0-8.76,4.07-16.34,12.22-22.76s18.16-9.62,30.04-9.62,21.98,3.07,29.07,9.21c7.09,6.14,10.74,14.71,10.95,25.71v52.13c0,10.66,1.12,18.63,3.36,23.93v1.22h-13.03Zm-38.28-8.76c8.15,0,15.43-1.97,21.84-5.91,6.41-3.94,11.08-9.2,14-15.78v-24.23h-21.79c-12.15.14-21.65,2.36-28.51,6.67-6.86,4.31-10.28,10.23-10.28,17.77,0,6.18,2.29,11.3,6.87,15.37,4.58,4.07,10.54,6.11,17.87,6.11Z"/><path class="cls-3" d="m1327.23,226.83h-12.22V70.44h12.22v156.39Z"/><path class="cls-3" d="m1379.26,88.46v28.2h22.81v9.98h-22.81v73.49c0,6.12,1.1,10.67,3.31,13.66,2.21,2.99,5.89,4.48,11.05,4.48,2.04,0,5.33-.34,9.88-1.02l.51,9.89c-3.19,1.14-7.53,1.72-13.03,1.72-8.35,0-14.42-2.43-18.23-7.28-3.8-4.85-5.7-12-5.7-21.43v-73.51h-20.26v-9.98h20.26v-28.2h12.22Z"/><path class="cls-3" d="m1439.44,135.3c4-6.58,9.13-11.67,15.37-15.27,6.24-3.6,13.07-5.4,20.47-5.4,11.81,0,20.6,3.33,26.37,9.98,5.77,6.65,8.69,16.63,8.76,29.93v72.29h-12.12v-72.39c-.07-9.84-2.16-17.17-6.26-21.99-4.11-4.82-10.67-7.23-19.7-7.23-7.53,0-14.2,2.36-20.01,7.08-5.8,4.72-10.1,11.08-12.88,19.09v75.45h-12.12V70.44h12.12v64.86Z"/><line class="cls-1" x1="56.84" y1="43.73" x2="204.84" y2="43.73"/></svg>